<svg width="29" height="29" viewBox="0 0 29 29" fill="none" xmlns="http://www.w3.org/2000/svg">
<path d="M8.84344 16.8476L14.4599 22.4641L20.079 16.8452L23.347 20.1131L14.4599 29L5.57574 20.1158L8.84356 16.8478L8.84344 16.8476ZM0 14.54L3.26805 17.8086L6.53588 14.5407L3.26782 11.2727L0 14.54ZM8.84344 12.2321L14.4599 6.61598L20.0789 12.2348L23.3486 8.96856L23.347 8.96682L14.4599 0.0800781L5.57574 8.96428L5.57111 8.9689L8.84379 12.2325L8.84344 12.2321ZM22.3839 14.5387L25.652 17.8067L28.9198 14.5389L25.6519 11.2708L22.3839 14.5387Z" fill="#3BDCB1"/>
<path d="M17.7744 14.5429H17.7758L14.4599 17.8589L12.0091 15.4087L11.7275 15.1271L11.1468 14.5462L11.1422 14.5417L11.1468 14.537L14.4599 11.2233L17.776 14.5394L17.7776 14.5412L17.7746 14.5429" fill="#3BDCB1"/>
</svg>
