<svg width="20" height="18" viewBox="0 0 20 18" fill="none" xmlns="http://www.w3.org/2000/svg">
<path d="M4.79046 3.4264L12.2657 1.38597L11.8698 0.585799C11.6108 0.0656892 10.9791 -0.149093 10.459 0.109909L3.76709 3.4264H4.79046Z" fill="white"/>
<path d="M14.5863 1.44507C14.4937 1.44507 14.401 1.4577 14.3084 1.48297L12.5522 1.96307L7.18896 3.42654H13.2766H15.9297L15.6013 2.22207C15.4749 1.7525 15.0496 1.44507 14.5863 1.44507Z" fill="white"/>
<path d="M17.0264 4.16345H16.7864H16.46H16.1336H13.6426H4.48906H3.28881H2.27807H2.09066H1.46316C1.13046 4.16345 0.833556 4.31717 0.639831 4.55932C0.551391 4.67093 0.484009 4.79938 0.446106 4.94046C0.422943 5.0289 0.408203 5.12155 0.408203 5.21631V5.34265V6.5429V16.9472C0.408203 17.5284 0.879881 18 1.46106 18H17.0243C17.6055 18 18.0772 17.5284 18.0772 16.9472V14.0097H11.8296C10.842 14.0097 10.0397 13.2075 10.0397 12.2199V11.2555V10.9291V10.6027V9.87834C10.0397 9.39402 10.2334 8.95395 10.5472 8.63178C10.8251 8.34538 11.1978 8.15166 11.6148 8.10323C11.6843 8.09483 11.7559 8.09059 11.8274 8.09059H17.2012H17.5276H17.854H18.0772V5.21631C18.0793 4.63513 17.6076 4.16345 17.0264 4.16345Z" fill="white"/>
<path d="M18.816 9.09712C18.7107 9.00025 18.5864 8.92655 18.4475 8.87812C18.34 8.84235 18.2264 8.82129 18.1063 8.82129H18.079H18.0579H17.7315H16.5544H11.8292C11.248 8.82129 10.7764 9.29295 10.7764 9.87414V10.3984V10.7248V11.0512V12.2178C10.7764 12.7989 11.248 13.2706 11.8292 13.2706H18.079H18.1063C18.2264 13.2706 18.3401 13.2496 18.4475 13.2138C18.5864 13.1674 18.7107 13.0916 18.816 12.9948C19.0265 12.8032 19.1592 12.5252 19.1592 12.2178V9.87414C19.1592 9.56669 19.0265 9.28871 18.816 9.09712ZM14.0276 11.2555C14.0276 11.5461 13.7917 11.7819 13.5011 11.7819H13.1516C12.861 11.7819 12.6252 11.5461 12.6252 11.2555V10.9059C12.6252 10.7375 12.7031 10.5879 12.8273 10.4932C12.9179 10.4237 13.0295 10.3795 13.1516 10.3795H13.24H13.5011C13.7917 10.3795 14.0276 10.6153 14.0276 10.9059V11.2555Z" fill="white"/>
</svg>
