<svg width="17" height="17" viewBox="0 0 17 17" fill="none" xmlns="http://www.w3.org/2000/svg">
<g opacity="0.5">
<path d="M8.49984 1.41669C4.59409 1.41669 1.4165 4.59427 1.4165 8.50002C1.4165 12.4058 4.59409 15.5834 8.49984 15.5834C12.4056 15.5834 15.5832 12.4058 15.5832 8.50002C15.5832 4.59427 12.4056 1.41669 8.49984 1.41669ZM8.49984 14.1667C5.37538 14.1667 2.83317 11.6245 2.83317 8.50002C2.83317 5.37556 5.37538 2.83335 8.49984 2.83335C11.6243 2.83335 14.1665 5.37556 14.1665 8.50002C14.1665 11.6245 11.6243 14.1667 8.49984 14.1667Z" fill="white"/>
<path d="M7.7915 7.79165H9.20817V12.0416H7.7915V7.79165ZM7.7915 4.95831H9.20817V6.37498H7.7915V4.95831Z" fill="white"/>
</g>
</svg>
