<svg width="14" height="18" viewBox="0 0 14 18" fill="none" xmlns="http://www.w3.org/2000/svg">
<path d="M1.59997 0.900006C0.91161 0.900006 0.339966 1.47165 0.339966 2.16001V15.84C0.339966 16.5284 0.91161 17.1 1.59997 17.1H7.35997C7.50481 17.1021 7.64402 17.0459 7.74668 16.9446C7.85004 16.8434 7.90769 16.7049 7.90769 16.56C7.90769 16.4152 7.85004 16.2767 7.74668 16.1754C7.64402 16.0742 7.50479 16.0179 7.35997 16.02H1.59997C1.49098 16.02 1.41997 15.949 1.41997 15.84V2.16001C1.41997 2.05103 1.49098 1.98001 1.59997 1.98001H7.35997C7.50481 1.98212 7.64402 1.92587 7.74668 1.82462C7.85004 1.72337 7.90769 1.58486 7.90769 1.44002C7.90769 1.29517 7.85004 1.15666 7.74668 1.05541C7.64402 0.954161 7.50479 0.897911 7.35997 0.900021L1.59997 0.900006ZM9.09805 4.49443C8.88781 4.51482 8.70851 4.65615 8.6396 4.85583C8.5707 5.05552 8.62484 5.27699 8.77742 5.42254L11.8149 8.46004H4.11992C4.10093 8.45934 4.08265 8.45934 4.06367 8.46004C3.92023 8.46778 3.78593 8.53176 3.69031 8.63793C3.59398 8.74481 3.54406 8.88473 3.55179 9.02817C3.55883 9.17161 3.62351 9.30591 3.72968 9.40153C3.83656 9.49786 3.97648 9.54778 4.11992 9.54004H11.8149L8.77742 12.5775C8.56648 12.7885 8.56648 13.1316 8.77742 13.3425C8.98837 13.5535 9.33148 13.5535 9.54242 13.3425L13.5024 9.38254C13.6044 9.28129 13.6613 9.14349 13.6613 9.00004C13.6613 8.8566 13.6044 8.71879 13.5024 8.61754L9.54242 4.65754C9.44047 4.55278 9.30054 4.49372 9.15431 4.49442C9.13532 4.49372 9.11704 4.49372 9.09806 4.49442L9.09805 4.49443Z" fill="white"/>
</svg>
