<svg width="62" height="62" viewBox="0 0 62 62" fill="none" xmlns="http://www.w3.org/2000/svg">
<circle cx="30.8738" cy="30.8738" r="30.8738" fill="white"/>
<path d="M19.7567 25.5355H20.9047V34.2155C20.9047 34.4022 20.9374 34.5329 21.0027 34.6075C21.068 34.6822 21.1427 34.7195 21.2267 34.7195C21.264 34.7195 21.2967 34.7195 21.3247 34.7195C21.362 34.7195 21.4134 34.7102 21.4787 34.6915L21.6327 35.5595C21.558 35.5969 21.4694 35.6249 21.3667 35.6435C21.264 35.6622 21.1334 35.6715 20.9747 35.6715C20.536 35.6715 20.2234 35.5409 20.0367 35.2795C19.85 35.0182 19.7567 34.6355 19.7567 34.1315V25.5355ZM22.4623 32.1155C22.4623 31.5462 22.5463 31.0422 22.7143 30.6035C22.8916 30.1555 23.125 29.7775 23.4143 29.4695C23.7036 29.1615 24.035 28.9282 24.4083 28.7695C24.791 28.6109 25.1923 28.5315 25.6123 28.5315C26.0323 28.5315 26.429 28.6109 26.8023 28.7695C27.185 28.9282 27.521 29.1615 27.8103 29.4695C28.0996 29.7775 28.3283 30.1555 28.4963 30.6035C28.6736 31.0422 28.7623 31.5462 28.7623 32.1155C28.7623 32.6755 28.6736 33.1795 28.4963 33.6275C28.3283 34.0662 28.0996 34.4395 27.8103 34.7475C27.521 35.0462 27.185 35.2749 26.8023 35.4335C26.429 35.5922 26.0323 35.6715 25.6123 35.6715C25.1923 35.6715 24.791 35.5922 24.4083 35.4335C24.035 35.2749 23.7036 35.0462 23.4143 34.7475C23.125 34.4395 22.8916 34.0662 22.7143 33.6275C22.5463 33.1795 22.4623 32.6755 22.4623 32.1155ZM23.6523 32.1155C23.6523 32.5075 23.699 32.8622 23.7923 33.1795C23.8856 33.4969 24.0163 33.7722 24.1843 34.0055C24.3616 34.2295 24.5716 34.4069 24.8143 34.5375C25.057 34.6589 25.323 34.7195 25.6123 34.7195C25.9016 34.7195 26.1676 34.6589 26.4103 34.5375C26.653 34.4069 26.8583 34.2295 27.0263 34.0055C27.2036 33.7722 27.339 33.4969 27.4323 33.1795C27.5256 32.8622 27.5723 32.5075 27.5723 32.1155C27.5723 31.7235 27.5256 31.3689 27.4323 31.0515C27.339 30.7249 27.2036 30.4449 27.0263 30.2115C26.8583 29.9782 26.653 29.8009 26.4103 29.6795C26.1676 29.5489 25.9016 29.4835 25.6123 29.4835C25.323 29.4835 25.057 29.5489 24.8143 29.6795C24.5716 29.8009 24.3616 29.9782 24.1843 30.2115C24.0163 30.4449 23.8856 30.7249 23.7923 31.0515C23.699 31.3689 23.6523 31.7235 23.6523 32.1155ZM30.6854 36.6515C30.6854 37.0155 30.8581 37.3049 31.2034 37.5195C31.5581 37.7342 32.0434 37.8415 32.6594 37.8415C32.9861 37.8415 33.2801 37.7995 33.5414 37.7155C33.8121 37.6409 34.0408 37.5382 34.2274 37.4075C34.4141 37.2862 34.5588 37.1415 34.6614 36.9735C34.7641 36.8055 34.8154 36.6329 34.8154 36.4555C34.8154 36.1382 34.6988 35.9189 34.4654 35.7975C34.2321 35.6762 33.8914 35.6155 33.4434 35.6155H32.2674C32.1368 35.6155 31.9921 35.6062 31.8334 35.5875C31.6841 35.5782 31.5348 35.5502 31.3854 35.5035C31.1428 35.6809 30.9654 35.8675 30.8534 36.0635C30.7414 36.2595 30.6854 36.4555 30.6854 36.6515ZM29.6774 36.8055C29.6774 36.5162 29.7661 36.2409 29.9434 35.9795C30.1208 35.7182 30.3634 35.4802 30.6714 35.2655V35.2095C30.5034 35.1069 30.3588 34.9669 30.2374 34.7895C30.1254 34.6029 30.0694 34.3742 30.0694 34.1035C30.0694 33.8142 30.1488 33.5622 30.3074 33.3475C30.4661 33.1329 30.6341 32.9649 30.8114 32.8435V32.7875C30.5874 32.6009 30.3821 32.3535 30.1954 32.0455C30.0181 31.7282 29.9294 31.3642 29.9294 30.9535C29.9294 30.5802 29.9948 30.2442 30.1254 29.9455C30.2654 29.6469 30.4521 29.3949 30.6854 29.1895C30.9188 28.9749 31.1894 28.8115 31.4974 28.6995C31.8148 28.5875 32.1461 28.5315 32.4914 28.5315C32.6781 28.5315 32.8508 28.5502 33.0094 28.5875C33.1774 28.6155 33.3268 28.6529 33.4574 28.6995H35.8234V29.5815H34.4234C34.5821 29.7402 34.7128 29.9409 34.8154 30.1835C34.9274 30.4262 34.9834 30.6922 34.9834 30.9815C34.9834 31.3455 34.9181 31.6769 34.7874 31.9755C34.6568 32.2649 34.4794 32.5122 34.2554 32.7175C34.0314 32.9135 33.7654 33.0675 33.4574 33.1795C33.1588 33.2915 32.8368 33.3475 32.4914 33.3475C32.3234 33.3475 32.1508 33.3289 31.9734 33.2915C31.7961 33.2449 31.6281 33.1842 31.4694 33.1095C31.3481 33.2122 31.2454 33.3289 31.1614 33.4595C31.0774 33.5809 31.0354 33.7349 31.0354 33.9215C31.0354 34.1362 31.1194 34.3135 31.2874 34.4535C31.4554 34.5935 31.7728 34.6635 32.2394 34.6635H33.5554C34.3488 34.6635 34.9414 34.7942 35.3334 35.0555C35.7348 35.3075 35.9354 35.7182 35.9354 36.2875C35.9354 36.6049 35.8561 36.9035 35.6974 37.1835C35.5388 37.4729 35.3101 37.7249 35.0114 37.9395C34.7128 38.1542 34.3488 38.3222 33.9194 38.4435C33.4994 38.5742 33.0234 38.6395 32.4914 38.6395C32.0714 38.6395 31.6888 38.5975 31.3434 38.5135C30.9981 38.4389 30.6994 38.3222 30.4474 38.1635C30.2048 38.0049 30.0134 37.8135 29.8734 37.5895C29.7428 37.3655 29.6774 37.1042 29.6774 36.8055ZM32.4914 32.5775C32.6874 32.5775 32.8694 32.5402 33.0374 32.4655C33.2148 32.3909 33.3688 32.2835 33.4994 32.1435C33.6394 32.0035 33.7468 31.8355 33.8214 31.6395C33.8961 31.4342 33.9334 31.2055 33.9334 30.9535C33.9334 30.4495 33.7934 30.0622 33.5134 29.7915C33.2334 29.5115 32.8928 29.3715 32.4914 29.3715C32.0901 29.3715 31.7494 29.5115 31.4694 29.7915C31.1894 30.0622 31.0494 30.4495 31.0494 30.9535C31.0494 31.2055 31.0868 31.4342 31.1614 31.6395C31.2361 31.8355 31.3388 32.0035 31.4694 32.1435C31.6094 32.2835 31.7634 32.3909 31.9314 32.4655C32.1088 32.5402 32.2954 32.5775 32.4914 32.5775ZM36.196 32.1155C36.196 31.5462 36.28 31.0422 36.448 30.6035C36.6253 30.1555 36.8586 29.7775 37.148 29.4695C37.4373 29.1615 37.7686 28.9282 38.142 28.7695C38.5246 28.6109 38.926 28.5315 39.346 28.5315C39.766 28.5315 40.1626 28.6109 40.536 28.7695C40.9186 28.9282 41.2546 29.1615 41.544 29.4695C41.8333 29.7775 42.062 30.1555 42.23 30.6035C42.4073 31.0422 42.496 31.5462 42.496 32.1155C42.496 32.6755 42.4073 33.1795 42.23 33.6275C42.062 34.0662 41.8333 34.4395 41.544 34.7475C41.2546 35.0462 40.9186 35.2749 40.536 35.4335C40.1626 35.5922 39.766 35.6715 39.346 35.6715C38.926 35.6715 38.5246 35.5922 38.142 35.4335C37.7686 35.2749 37.4373 35.0462 37.148 34.7475C36.8586 34.4395 36.6253 34.0662 36.448 33.6275C36.28 33.1795 36.196 32.6755 36.196 32.1155ZM37.386 32.1155C37.386 32.5075 37.4326 32.8622 37.526 33.1795C37.6193 33.4969 37.75 33.7722 37.918 34.0055C38.0953 34.2295 38.3053 34.4069 38.548 34.5375C38.7906 34.6589 39.0566 34.7195 39.346 34.7195C39.6353 34.7195 39.9013 34.6589 40.144 34.5375C40.3866 34.4069 40.592 34.2295 40.76 34.0055C40.9373 33.7722 41.0726 33.4969 41.166 33.1795C41.2593 32.8622 41.306 32.5075 41.306 32.1155C41.306 31.7235 41.2593 31.3689 41.166 31.0515C41.0726 30.7249 40.9373 30.4449 40.76 30.2115C40.592 29.9782 40.3866 29.8009 40.144 29.6795C39.9013 29.5489 39.6353 29.4835 39.346 29.4835C39.0566 29.4835 38.7906 29.5489 38.548 29.6795C38.3053 29.8009 38.0953 29.9782 37.918 30.2115C37.75 30.4449 37.6193 30.7249 37.526 31.0515C37.4326 31.3689 37.386 31.7235 37.386 32.1155Z" fill="#1A2238"/>
</svg>
