<svg width="15" height="15" viewBox="0 0 15 15" fill="none" xmlns="http://www.w3.org/2000/svg">
<path d="M14.7217 14.7214C14.5361 14.9071 14.314 15 14.0552 15C13.7964 15 13.5742 14.9071 13.3887 14.7214L10.4883 11.8182C9.31641 12.6882 8.00781 13.1232 6.5625 13.1232C5.67383 13.1232 4.82422 12.9497 4.01367 12.6026C3.20312 12.2556 2.50488 11.7889 1.91895 11.2023C1.33301 10.6158 0.866699 9.91935 0.52002 9.1129C0.17334 8.30645 0 7.45601 0 6.56158C0 5.66716 0.17334 4.81427 0.52002 4.00293C0.866699 3.19159 1.33301 2.49511 1.91895 1.91349C2.50488 1.33187 3.20312 0.867546 4.01367 0.520528C4.82422 0.173509 5.67383 0 6.5625 0C7.45117 0 8.30078 0.173509 9.11133 0.520528C9.92188 0.867546 10.6201 1.33187 11.2061 1.91349C11.792 2.49511 12.2583 3.19159 12.605 4.00293C12.9517 4.81427 13.125 5.66471 13.125 6.55425C13.125 8.01075 12.6904 9.32063 11.8213 10.4839L14.7217 13.3871C14.9072 13.5728 15 13.7952 15 14.0543C15 14.3133 14.9072 14.5357 14.7217 14.7214ZM6.5625 1.87683C5.71289 1.87683 4.9292 2.08456 4.21143 2.5C3.49365 2.91544 2.9248 3.48485 2.50488 4.20821C2.08496 4.93157 1.875 5.71603 1.875 6.56158C1.875 7.40714 2.08496 8.19159 2.50488 8.91496C2.9248 9.63832 3.49365 10.2077 4.21143 10.6232C4.9292 11.0386 5.71289 11.2463 6.5625 11.2463C7.41211 11.2463 8.1958 11.0386 8.91357 10.6232C9.63135 10.2077 10.2002 9.63832 10.6201 8.91496C11.04 8.19159 11.25 7.40714 11.25 6.56158C11.25 5.71603 11.04 4.93157 10.6201 4.20821C10.2002 3.48485 9.63135 2.91544 8.91357 2.5C8.1958 2.08456 7.41211 1.87683 6.5625 1.87683Z" fill="#8499AE"/>
</svg>
