<svg width="19" height="30" viewBox="0 0 19 30" fill="none" xmlns="http://www.w3.org/2000/svg">
<path d="M12.3813 8.99849C12.3813 4.80616 10.37 1.1943 8.82945 0.0118465C8.82945 0.0118465 8.72246 -0.052651 8.72246 0.119342C8.59408 8.22452 4.50729 10.4389 2.23922 13.3843C-2.9602 20.221 1.87548 27.7027 6.79675 29.0787C9.55694 29.8527 6.15484 27.7027 5.72691 23.1879C5.21338 17.7056 12.3813 13.5348 12.3813 8.99849Z" fill="#3BDCB1"/>
<path d="M15.176 11.7099C15.1546 11.6883 15.1119 11.6883 15.0692 11.7099C15.0692 11.7099 15.0692 11.7099 15.0478 11.7315C14.9624 12.7447 13.8517 14.9437 12.4634 16.9486C7.74298 23.7611 10.4342 27.038 11.9508 28.8058C12.8265 29.8406 11.9508 28.8058 14.1508 27.7495C14.3216 27.6632 18.4226 25.4643 18.8712 20.4842C19.3197 15.6336 16.2653 12.5938 15.176 11.7099Z" fill="#3BDCB1"/>
</svg>
