<svg width="24" height="28" viewBox="0 0 24 28" fill="none" xmlns="http://www.w3.org/2000/svg">
<path d="M11.0563 12.9196C11.6267 13.9284 10.3509 14.2411 9.75211 14.2987C8.84488 14.3873 8.65706 13.862 8.83425 13.2021C8.89247 12.9659 9.02151 12.7533 9.20397 12.5933C9.38653 12.4332 9.61357 12.3334 9.85444 12.3075C10.0917 12.2857 10.3304 12.3315 10.543 12.4397C10.7556 12.5481 10.9335 12.7144 11.0563 12.9196Z" fill="#3BDCB1"/>
<path d="M14.6175 11.0534C13.9544 16.1481 22.8933 15.088 22.7232 19.1429C23.6049 17.9914 23.984 14.863 21.3883 13.2527C19.0755 11.8169 16.0618 12.6025 14.6175 11.0534Z" fill="#3BDCB1"/>
<path d="M19.7661 9.13199C19.7079 9.07797 19.6478 9.02482 19.5897 8.97168C19.6488 9.0257 19.7079 9.0824 19.7661 9.13199Z" fill="#3BDCB1"/>
<path d="M21.8436 12.8457L21.8384 12.8377C21.7577 12.6871 21.6657 12.5429 21.5633 12.4064C21.2619 11.9962 20.8297 11.7023 20.3386 11.5737C20.0117 11.489 19.6774 11.4362 19.3404 11.4161C18.9992 11.3912 18.6509 11.377 18.2992 11.3585C17.5938 11.3195 16.8716 11.2469 16.1662 11.0449C15.9899 10.9944 15.8136 10.9395 15.6434 10.8731C15.5553 10.8412 15.4733 10.8067 15.386 10.7695C15.2987 10.7323 15.2096 10.6897 15.1214 10.6446C14.7898 10.4621 14.4825 10.238 14.2071 9.97763C13.664 9.47013 13.2373 8.89435 12.8096 8.33634C12.4065 7.77618 11.9737 7.23807 11.5135 6.72429C11.0593 6.22099 10.5224 5.79975 9.92641 5.47895C9.30914 5.16666 8.63873 4.97433 7.95045 4.91208C8.6645 4.83419 9.38683 4.92269 10.0613 5.17071C10.7418 5.43613 11.364 5.83305 11.8926 6.33901C12.2377 6.66411 12.5617 7.01114 12.8625 7.37797C15.102 6.9351 16.9184 7.32838 18.3141 8.09188L18.3459 8.10782C18.7901 8.34987 19.2065 8.64038 19.5873 8.97407C19.6482 9.02722 19.7082 9.08036 19.7637 9.1344C20.061 9.4088 20.3377 9.70488 20.5916 10.0201L20.611 10.0458C21.4355 11.0945 21.8428 12.1849 21.8436 12.8457Z" fill="#3BDCB1"/>
<path d="M21.8428 12.8455L21.8372 12.8342L21.8428 12.8455Z" fill="#3BDCB1"/>
<path d="M8.06414 5.56854C8.63551 5.65181 9.21836 5.88033 9.59391 6.31611C9.96956 6.7519 10.108 7.31877 10.2164 7.85818C10.3046 8.27626 10.3743 8.7023 10.5383 9.09822C10.6176 9.29131 10.734 9.46048 10.831 9.64294C10.9112 9.79437 11.0576 9.93084 11.114 10.0929C11.1242 10.1162 11.1279 10.1417 11.1249 10.1669C11.122 10.1921 11.1125 10.2161 11.0973 10.2364C10.898 10.4578 10.3602 10.2116 10.1574 10.1124C9.80675 9.9378 9.49281 9.69731 9.23247 9.40381C8.41863 8.49591 7.99803 7.18945 8.02361 5.9999C8.02925 5.85548 8.04279 5.71147 8.06414 5.56854Z" fill="#3BDCB1"/>
<path d="M17.6199 15.8062C16.3855 19.2667 21.9845 21.5883 19.8868 25.1065C22.0391 24.2136 23.061 21.5166 22.1679 19.3766C21.3867 17.498 19.0765 16.8133 17.6199 15.8062Z" fill="#3BDCB1"/>
<path d="M10.2148 20.3318C10.5512 20.0771 10.919 19.8671 11.3091 19.7073C11.7036 19.5487 12.113 19.43 12.5311 19.353C13.3608 19.1945 14.1817 19.1555 14.8712 18.8765C15.2119 18.7428 15.5253 18.5478 15.7961 18.3008C16.0582 18.0562 16.2589 17.7525 16.3816 17.415C16.5073 17.0588 16.5583 16.6803 16.5314 16.3034C16.5003 15.8985 16.4091 15.5006 16.2607 15.1227C16.5681 15.4438 16.792 15.8361 16.9123 16.2648C17.0327 16.6936 17.0461 17.1455 16.9512 17.5806C16.8433 18.0413 16.6104 18.4628 16.2784 18.7985C15.9498 19.1237 15.5535 19.3718 15.1181 19.5249C14.7026 19.6712 14.2692 19.7607 13.8299 19.7906C13.4066 19.826 12.9975 19.8357 12.5955 19.8596C11.7826 19.8939 10.9797 20.0531 10.2148 20.3318Z" fill="#3BDCB1"/>
<path d="M18.1125 26.4149C17.9881 26.5141 17.8638 26.6196 17.7271 26.7116C17.5896 26.8027 17.4454 26.8832 17.296 26.9526C16.9847 27.1052 16.6424 27.183 16.2961 27.1802C15.3579 27.1625 14.6949 26.461 14.307 25.6682C14.0424 25.128 13.86 24.5442 13.546 24.0296C13.0972 23.2936 12.3292 22.701 11.4299 22.8108C11.0631 22.8569 10.7193 23.0225 10.5155 23.3423C9.97943 24.1776 10.7493 25.3476 11.7306 25.182C11.814 25.1692 11.8957 25.1466 11.9739 25.1146C12.0519 25.0813 12.1246 25.0368 12.19 24.9827C12.327 24.868 12.4304 24.718 12.4889 24.5487C12.5533 24.3722 12.5677 24.1811 12.5302 23.9968C12.49 23.8043 12.3768 23.635 12.2146 23.5248C12.4033 23.6134 12.5502 23.7722 12.6247 23.9676C12.7018 24.1686 12.7216 24.3874 12.6819 24.5991C12.6434 24.8198 12.5466 25.026 12.4016 25.1962C12.3245 25.2836 12.2355 25.3597 12.137 25.422C12.0395 25.4836 11.935 25.5332 11.8258 25.5699C11.6043 25.646 11.3686 25.6705 11.1363 25.6417C10.8101 25.595 10.5026 25.461 10.2458 25.2537C9.94247 25.0128 9.71674 24.6975 9.44249 24.4264C9.12816 24.0951 8.75731 23.823 8.34743 23.623C8.0648 23.4983 7.76901 23.4062 7.46569 23.3485C7.31313 23.3166 7.15889 23.2936 7.00455 23.2741C6.93401 23.267 6.58838 23.1899 6.53989 23.2351C7.01677 22.7941 7.53669 22.4024 8.0917 22.0659C8.66157 21.7262 9.27347 21.4633 9.91162 21.2839C10.5732 21.0968 11.2652 21.0435 11.9475 21.1271C12.2987 21.1694 12.6426 21.2588 12.9702 21.3928C13.3135 21.5306 13.6304 21.7271 13.9066 21.9738C14.1801 22.2326 14.401 22.5421 14.5574 22.8853C14.6984 23.2065 14.8038 23.5424 14.8712 23.887C15.0723 24.9171 14.9982 26.5141 16.3411 26.7497C16.411 26.7634 16.4817 26.7734 16.5527 26.7798L16.7722 26.7852C16.9232 26.7744 17.0732 26.7527 17.221 26.7205C17.5274 26.6481 17.826 26.5457 18.1125 26.4149Z" fill="#3BDCB1"/>
<path d="M10.3099 25.2926L10.2747 25.265L10.3099 25.2926Z" fill="#3BDCB1"/>
<path d="M9.10454 10.7536C9.05564 10.9424 8.97024 11.1197 8.85323 11.2753C8.6355 11.5593 8.34723 11.7807 8.01739 11.9175C7.72074 12.0459 7.40661 12.1289 7.08542 12.1637C7.01573 12.1726 6.94347 12.1779 6.87382 12.1832C6.6704 12.1909 6.47481 12.2639 6.31567 12.3915C6.15653 12.519 6.04221 12.6943 5.98945 12.8918C5.96529 12.9901 5.94732 13.0898 5.93566 13.1903C5.90392 13.4507 5.89863 13.7217 5.87042 14.0494C5.80133 14.6071 5.64074 15.1495 5.39517 15.6544C5.07599 16.3293 4.71802 16.8732 4.8009 17.6509C4.85556 18.1558 5.11302 18.4941 5.45513 18.8431C6.07233 19.4773 7.45401 19.7607 7.14542 21.3232C6.95934 22.2558 5.41986 23.2346 3.25612 23.5765C3.47126 23.5437 2.98014 22.712 2.94928 22.6588C2.71739 22.2939 2.46346 21.9502 2.27918 21.5544C1.91767 20.7864 1.75014 19.898 1.89828 19.0565C2.05434 18.1708 2.70681 17.4923 3.24907 16.8156C3.89449 16.0105 4.57164 14.9556 4.72153 13.9104C4.7568 13.6571 4.78149 13.34 4.83792 13.0246C4.89172 12.6753 5.00066 12.3368 5.16063 12.022C5.26982 11.8155 5.41358 11.6294 5.58562 11.472C5.67531 11.3884 5.73449 11.2769 5.75368 11.1555C5.77286 11.0341 5.75094 10.9097 5.69142 10.8023L2.24214 4.57027L7.1965 10.712C7.25293 10.7831 7.32422 10.841 7.40539 10.8813C7.48655 10.9217 7.57562 10.9437 7.6661 10.9456C7.75667 10.9476 7.84649 10.9295 7.92935 10.8926C8.01212 10.8558 8.08586 10.801 8.1453 10.7324C8.20803 10.6588 8.24358 10.5658 8.24603 10.469C8.24838 10.3722 8.21753 10.2775 8.15847 10.201C7.83492 9.78553 7.49276 9.36213 7.16122 8.94583L5.91451 7.39578L3.41219 4.301L0 0L3.73313 4.02377L6.3968 6.98214L7.72554 8.46487C8.16637 8.96355 8.60729 9.44628 9.04811 9.97063L9.12044 10.0592L9.13633 10.1964C9.15778 10.3827 9.14705 10.5712 9.10454 10.7536Z" fill="#3BDCB1"/>
<path d="M10.2468 25.2496C10.0075 25.0638 9.79444 24.8459 9.61377 24.6021C9.80761 24.8342 10.0192 25.0507 10.2468 25.2496Z" fill="#3BDCB1"/>
</svg>
