<svg width="27" height="45" viewBox="0 0 27 45" fill="none" xmlns="http://www.w3.org/2000/svg">
<path fill-rule="evenodd" clip-rule="evenodd" d="M0.830114 23.0921C0.738264 23.036 0.707315 22.9172 0.760089 22.8234L13.1634 0.773176C13.2643 0.593797 13.5377 0.66542 13.5377 0.87123V30.5013C13.5377 30.6574 13.3666 30.7534 13.2334 30.6719L0.830114 23.0921ZM1.20399 26.6298C1.08093 26.4521 1.28825 26.2326 1.47271 26.3453L13.442 33.6599C13.5014 33.6962 13.5377 33.7608 13.5377 33.8305V43.8049C13.5377 44.001 13.2848 44.0799 13.1732 43.9187L1.20399 26.6298ZM26.2455 23.0921C26.3374 23.036 26.3683 22.9172 26.3155 22.8234L13.9123 0.773176C13.8114 0.593797 13.5379 0.66542 13.5379 0.87123V30.5013C13.5379 30.6574 13.709 30.7534 13.8422 30.6719L26.2455 23.0921ZM25.8716 26.6298C25.9947 26.4521 25.7874 26.2326 25.6029 26.3453L13.6337 33.6599C13.5742 33.6962 13.5379 33.7608 13.5379 33.8305V43.8049C13.5379 44.001 13.7908 44.0799 13.9024 43.9187L25.8716 26.6298Z" fill="white"/>
</svg>
