<svg width="250" height="250" viewBox="0 0 250 250" fill="none" xmlns="http://www.w3.org/2000/svg">
<path d="M124.9 0C55.9342 0 0 55.9342 0 124.9C0 193.865 55.9342 249.8 124.9 249.8C193.865 249.8 249.8 193.865 249.8 124.9C250 55.9342 194.066 0 124.9 0ZM119.286 186.447C112.47 191.259 104.25 194.066 96.0305 194.066C81.5958 194.066 68.3641 186.247 58.34 171.812C49.3184 157.979 44.3063 141.941 43.9054 125.501C43.9054 124.9 44.3063 124.298 44.9078 124.098L54.7314 119.687C55.5333 119.286 56.3352 119.687 56.7362 120.489C56.7362 120.69 56.9366 120.89 56.9366 121.091C56.9366 137.53 61.3472 152.967 69.166 164.395C76.5838 175.221 86.2069 181.034 96.231 181.034C101.644 181.034 107.057 179.431 111.468 176.423C112.069 176.022 113.071 176.223 113.472 176.824C115.477 179.431 117.482 181.836 119.687 184.242C119.888 184.844 119.888 185.846 119.286 186.447ZM191.66 171.812C181.836 186.047 168.404 194.066 153.97 194.066C139.535 194.066 126.303 186.047 116.279 171.812C106.856 158.18 101.644 140.136 101.644 121.091C101.644 103.448 111.868 89.6151 124.699 89.6151C137.53 89.6151 147.755 103.448 147.755 121.091C147.955 136.528 144.346 151.564 137.129 165.196C136.728 165.998 135.726 166.199 135.124 165.798C134.924 165.798 134.924 165.597 134.723 165.397C133.52 163.994 132.318 162.59 131.315 161.187C130.112 159.383 129.11 157.779 128.107 155.774C127.907 155.373 127.907 154.771 128.107 154.37C132.719 143.745 134.924 132.318 134.924 120.89C134.924 112.269 130.513 102.446 124.699 102.446C118.885 102.446 114.475 112.269 114.475 120.89C114.475 137.33 118.885 152.767 126.704 164.194C134.122 175.02 143.745 180.834 153.769 180.834C163.793 180.834 173.416 174.82 180.834 164.194C188.653 152.767 193.063 137.33 193.063 120.89C193.063 104.451 188.653 89.0136 180.834 77.5862C178.629 74.178 175.822 71.1708 172.815 68.5646C172.213 67.9631 172.213 66.9607 172.614 66.3593C172.815 66.1588 173.015 65.9583 173.216 65.9583L183.039 61.5477C183.641 61.3472 184.242 61.3472 184.643 61.9487C187.249 64.5549 189.455 67.3617 191.46 70.1684C200.882 83.8011 206.095 101.844 206.095 120.89C206.095 139.936 201.083 158.18 191.66 171.812Z" fill="white"/>
</svg>
