<svg width="33" height="32" viewBox="0 0 33 32" fill="none" xmlns="http://www.w3.org/2000/svg">
<ellipse cx="16.0107" cy="16" rx="16.0107" ry="16" fill="#5FD2A2"/>
<path fill-rule="evenodd" clip-rule="evenodd" d="M14.6271 15.9647V7.88245C14.6271 7.12922 15.2459 6.51862 16.0091 6.51862H16.0123C16.7756 6.51862 17.3944 7.12922 17.3944 7.88245V15.9647C17.3944 16.7179 16.7756 17.3285 16.0123 17.3285H16.0091C15.2459 17.3285 14.6271 16.7179 14.6271 15.9647ZM8.89534 22.869C10.7833 24.749 13.3405 25.8104 16.0105 25.8221C18.6805 25.8104 21.2377 24.749 23.1257 22.869C25.0136 20.989 26.0795 18.4426 26.0913 15.7839C26.0888 14.0222 25.622 12.292 24.7375 10.7664C23.853 9.24066 22.5817 7.9729 21.0509 7.08983C20.7316 6.9065 20.3522 6.85699 19.9962 6.9522C19.6403 7.0474 19.3368 7.27952 19.1527 7.59749C18.9686 7.91546 18.9189 8.29323 19.0145 8.64771C19.1101 9.00218 19.3432 9.30431 19.6626 9.48764C21.055 10.2882 22.1433 11.5239 22.7586 13.0031C23.3739 14.4823 23.4819 16.1224 23.0657 17.6689C22.6496 19.2155 21.7326 20.582 20.457 21.5567C19.1813 22.5314 17.6184 23.0597 16.0105 23.0597C14.4026 23.0597 12.8397 22.5314 11.564 21.5567C10.2884 20.582 9.37143 19.2155 8.95528 17.6689C8.53913 16.1224 8.64708 14.4823 9.26239 13.0031C9.8777 11.5239 10.966 10.2882 12.3585 9.48764C12.6778 9.30431 12.9109 9.00218 13.0065 8.64771C13.1021 8.29323 13.0524 7.91546 12.8683 7.59749C12.6842 7.27952 12.3807 7.0474 12.0248 6.9522C11.6688 6.85699 11.2894 6.9065 10.9701 7.08983C9.43926 7.9729 8.16804 9.24066 7.28351 10.7664C6.39899 12.292 5.93216 14.0222 5.92969 15.7839C5.9415 18.4426 7.00737 20.989 8.89534 22.869Z" fill="#242F4E"/>
</svg>
