<svg width="91" height="77" viewBox="0 0 91 77" fill="none" xmlns="http://www.w3.org/2000/svg">
<path d="M75.7806 7.15809C68.1893 2.13472 58.993 0 44.9987 0C35.0478 0 23.6214 0.847111 14.3238 7.11574C2.4835 15.1181 0 28.3076 0 37.9591C0 47.6105 2.4835 60.7209 14.321 68.7374C21.8813 73.837 31.1226 76.0113 45.2324 76.0113C59.176 76.0113 68.3216 73.8681 75.789 68.8447L75.8594 68.7967C85.3429 62.3474 90.1522 51.9759 90.1522 37.9704C90.1522 28.2963 87.6574 15.1096 75.7806 7.15809ZM71.9568 63.0957C65.6044 67.2973 57.5429 69.0904 44.9987 69.0904C36.0868 69.0904 25.9303 68.3873 18.1701 63.1606C10.683 58.1005 6.88735 49.652 6.88735 38.0466C6.88735 38.0466 6.88735 38.0212 6.88735 38.0071C6.88735 37.9929 6.88735 37.9817 6.88735 37.9675C6.88735 26.3649 10.683 17.9192 18.1701 12.8563C25.9303 7.62118 36.0868 6.92655 44.9987 6.92655C57.5429 6.92655 65.6044 8.72242 71.9568 12.9241C79.4636 17.9503 83.262 26.3762 83.262 37.9788V38.0579C83.262 49.6435 79.4636 58.0695 71.9568 63.0957Z" fill="white"/>
<path d="M68.3639 19.1386C63.2364 15.7501 56.3096 14.2959 45.2155 14.2959C34.0567 14.2959 27.1946 15.7078 22.2333 19.0567C16.6947 22.8037 14 29.1458 14 38.4386V38.5176C14 47.8133 16.6947 54.1553 22.2389 57.9024C27.189 61.24 34.0651 62.6631 45.2211 62.6631C56.3152 62.6631 63.242 61.2117 68.3695 57.8176C73.9053 54.1129 76.5972 47.7991 76.5972 38.5176V38.4386C76.5972 29.1599 73.9053 22.8461 68.3639 19.1386Z" fill="white"/>
</svg>
